<svg width="159" height="43" viewBox="0 0 170 43" fill="none" xmlns="http://www.w3.org/2000/svg">
    <g opacity="0.3">
        <path fill-rule="evenodd" clip-rule="evenodd"
            d="M47 5C47 3.89543 46.1046 3 45 3C43.8954 3 43 3.89543 43 5V10H38C36.8954 10 36 10.8954 36 12C36 13.1046 36.8954 14 38 14H43V19C43 20.1046 43.8954 21 45 21C46.1046 21 47 20.1046 47 19V14H52C53.1046 14 54 13.1046 54 12C54 10.8954 53.1046 10 52 10H47V5Z"
            fill="black" />
        <circle cx="9" cy="34" r="7" stroke="black" stroke-width="4" />
        <circle cx="150" cy="9" r="7" stroke="black" stroke-width="4" />
        <path fill-rule="evenodd" clip-rule="evenodd"
            d="M131.092 22.1924C131.873 21.4113 131.873 20.145 131.092 19.364C130.311 18.5829 129.044 18.5829 128.263 19.364L124.728 22.8995L121.192 19.364C120.411 18.5829 119.145 18.5829 118.364 19.364C117.583 20.145 117.583 21.4113 118.364 22.1924L121.899 25.7279L118.364 29.2635C117.583 30.0445 117.583 31.3108 118.364 32.0919C119.145 32.8729 120.411 32.8729 121.192 32.0919L124.728 28.5563L128.263 32.0919C129.044 32.8729 130.311 32.8729 131.092 32.0919C131.873 31.3108 131.873 30.0445 131.092 29.2635L127.556 25.7279L131.092 22.1924Z"
            fill="black" />
        <rect x="76.073" y="21.4495" width="14" height="14" rx="2" transform="rotate(15 76.073 21.4495)" stroke="black"
            stroke-width="4" />
    </g>
</svg>